<?xml version="1.0" encoding="iso-8859-1"?>
<!-- Generator: Adobe Illustrator 19.0.0, SVG Export Plug-In . SVG Version: 6.00 Build 0)  -->
<svg version="1.1" id="Layer_1" xmlns="http://www.w3.org/2000/svg" xmlns:xlink="http://www.w3.org/1999/xlink" x="0px" y="0px"
	 viewBox="0 0 512.001 512.001" style="enable-background:new 0 0 512.001 512.001;" xml:space="preserve">
<g>
	<g>
		<path d="M304.064,417.989h-34.134v-34.511c0-4.329-3.509-7.837-7.837-7.837c-4.328,0-7.837,3.508-7.837,7.837v36.895
			c0,7.328,5.808,13.29,12.945,13.29h36.863c4.328,0,7.837-3.508,7.837-7.837C311.901,421.498,308.393,417.989,304.064,417.989z"/>
	</g>
</g>
<g>
	<g>
		<path d="M120.412,146.46c-16.731,0-30.343,13.647-30.343,30.423c0,16.776,13.612,30.423,30.343,30.423
			c16.731,0,30.343-13.648,30.343-30.423C150.755,160.108,137.143,146.46,120.412,146.46z M120.412,191.633
			c-8.089,0-14.669-6.616-14.669-14.75s6.581-14.75,14.669-14.75s14.669,6.616,14.669,14.75S128.5,191.633,120.412,191.633z"/>
	</g>
</g>
<g>
	<g>
		<path d="M210.436,146.46c-16.732,0-30.344,13.647-30.344,30.423c0,16.776,13.612,30.423,30.344,30.423
			c16.731,0,30.343-13.648,30.343-30.423C240.779,160.108,227.168,146.46,210.436,146.46z M210.436,191.633
			c-8.09,0-14.67-6.616-14.67-14.75s6.581-14.75,14.67-14.75c8.089,0,14.669,6.616,14.669,14.75
			C225.107,185.016,218.526,191.633,210.436,191.633z"/>
	</g>
</g>
<g>
	<g>
		<path d="M300.461,146.46c-16.731,0-30.343,13.647-30.343,30.423c0,16.776,13.612,30.423,30.343,30.423
			c16.73,0,30.341-13.648,30.341-30.423C330.802,160.108,317.191,146.46,300.461,146.46z M300.461,191.633
			c-8.089,0-14.669-6.616-14.669-14.75s6.581-14.75,14.669-14.75c8.088,0,14.667,6.616,14.667,14.75
			C315.129,185.016,308.549,191.633,300.461,191.633z"/>
	</g>
</g>
<g>
	<g>
		<path d="M467.708,242.334h-46.835V75.323c0-34.393-27.751-62.373-61.863-62.373H61.863C27.751,12.95,0,40.93,0,75.323v197.698
			c0,34.394,27.751,62.374,61.863,62.374h1.825l23.476,41.046c3.796,6.639,10.886,10.766,18.501,10.766
			c7.614,0,14.703-4.125,18.499-10.765l23.478-41.047h75.268v84.977c0,24.614,19.87,44.637,44.292,44.637h139.85l14.582,25.495
			c3.016,5.272,8.646,8.546,14.696,8.546c6.049,0,11.68-3.275,14.695-8.546l14.581-25.495h2.102
			c24.422,0,44.292-20.023,44.292-44.637v-133.4C512,262.359,492.13,242.334,467.708,242.334z M143.096,319.722
			c-2.812,0-5.407,1.506-6.802,3.946l-25.736,44.994c-1.013,1.771-2.887,2.871-4.892,2.871c-2.006,0-3.881-1.1-4.894-2.872
			l-25.734-44.993c-1.396-2.44-3.992-3.946-6.802-3.946h-6.372c-25.469,0-46.19-20.949-46.19-46.701V75.323
			c0-25.749,20.72-46.7,46.19-46.7h297.146c25.469,0,46.19,20.95,46.19,46.7v197.698c0,25.752-20.72,46.701-46.19,46.701H143.096z
			 M496.327,420.373c0,15.97-12.839,28.964-28.619,28.964h-6.648c-2.811,0-5.407,1.506-6.803,3.945l-16.837,29.442
			c-0.462,0.806-1.721,0.806-2.181,0l-16.838-29.442c-1.396-2.44-3.992-3.945-6.803-3.945H267.202
			c-15.78,0-28.619-12.992-28.619-28.964v-84.977h120.426c34.112,0,61.863-27.98,61.863-62.374v-15.013h46.835
			c15.78,0,28.619,12.993,28.619,28.965V420.373z"/>
	</g>
</g>
<g>
</g>
<g>
</g>
<g>
</g>
<g>
</g>
<g>
</g>
<g>
</g>
<g>
</g>
<g>
</g>
<g>
</g>
<g>
</g>
<g>
</g>
<g>
</g>
<g>
</g>
<g>
</g>
<g>
</g>
</svg>
