<?xml version="1.0" encoding="iso-8859-1"?>
<!-- Generator: Adobe Illustrator 19.0.0, SVG Export Plug-In . SVG Version: 6.00 Build 0)  -->
<svg version="1.1" id="Layer_1" xmlns="http://www.w3.org/2000/svg" xmlns:xlink="http://www.w3.org/1999/xlink" x="0px" y="0px"
	 viewBox="0 0 512 512" style="enable-background:new 0 0 512 512;" xml:space="preserve">
<g>
	<g>
		<path d="M463.386,160.663h-61.41c-6.05,0-10.971,4.921-10.971,10.971v29.213c0,6.05,4.921,10.971,10.971,10.971h61.41
			c6.05,0,10.971-4.922,10.971-10.971v-29.213C474.358,165.585,469.436,160.663,463.386,160.663z M458.684,196.146h-52.006v-19.809
			h52.006V196.146z"/>
	</g>
</g>
<g>
	<g>
		<path d="M68.545,158.133c-13.194,0-23.928,10.733-23.928,23.927c0,13.194,10.734,23.928,23.928,23.928
			c13.194,0,23.928-10.734,23.928-23.928C92.473,168.868,81.739,158.133,68.545,158.133z M68.545,190.316
			c-4.552,0-8.255-3.703-8.255-8.255c0-4.552,3.703-8.254,8.255-8.254c4.552,0,8.255,3.702,8.255,8.254
			C76.8,186.613,73.097,190.316,68.545,190.316z"/>
	</g>
</g>
<g>
	<g>
		<path d="M256,211.582c-41.541,0-75.337,33.795-75.337,75.336c0,41.54,33.796,75.335,75.337,75.335
			c41.54,0,75.335-33.795,75.335-75.335C331.335,245.377,297.54,211.582,256,211.582z M256,346.579
			c-32.898,0-59.664-26.764-59.664-59.662c0-32.898,26.765-59.663,59.664-59.663c32.897,0,59.662,26.764,59.662,59.663
			C315.662,319.815,288.897,346.579,256,346.579z"/>
	</g>
</g>
<g>
	<g>
		<path d="M493.714,129.833h-17.671v-12.285c0-7.203-5.859-13.061-13.061-13.061H440.49c-7.203,0-13.061,5.859-13.061,13.061v12.285
			h-59.693L353.83,82.627c-1.787-6.063-7.899-10.634-14.218-10.634h-23.008c-4.329,0-7.837,3.509-7.837,7.837
			s3.508,7.837,7.837,7.837h22.37l12.422,42.166h-51.942v-16.036c0-7.202-5.859-13.061-13.061-13.061h-60.786
			c-7.202,0-13.061,5.859-13.061,13.061v16.036h-51.942l12.422-42.165h112.231c4.329,0,7.837-3.509,7.837-7.837
			c0-4.328-3.508-7.837-7.837-7.837H172.388c-6.32,0-12.431,4.571-14.218,10.634l-13.907,47.205h-33.61v-12.285
			c0-7.203-5.859-13.061-13.061-13.061H43.056c-7.203,0-13.061,5.859-13.061,13.061v12.285H18.286
			C8.203,129.833,0,138.037,0,148.119v273.602c0,10.082,8.203,18.286,18.286,18.286h475.429c10.082,0,18.286-8.203,18.286-18.286
			V148.119C512,138.037,503.797,129.833,493.714,129.833z M443.103,120.162h17.267v9.673h-17.267V120.162z M228.219,116.41h55.561
			v13.424h-55.561V116.41z M45.668,120.162H94.98v9.673H45.668V120.162z M496.327,231.771h-49.11c-4.329,0-7.837,3.509-7.837,7.837
			c0,4.328,3.508,7.837,7.837,7.837h49.11V402.09H90.906c-4.329,0-7.837,3.509-7.837,7.837c0,4.328,3.508,7.837,7.837,7.837h405.42
			v3.958c0,1.416-1.196,2.612-2.612,2.612H18.286c-1.416,0-2.612-1.196-2.612-2.612v-3.958h47.019c4.329,0,7.837-3.509,7.837-7.837
			c0-4.328-3.508-7.837-7.837-7.837H15.673V247.445h137.71c-4.73,12.259-7.333,25.567-7.333,39.472
			c0,60.625,49.322,109.948,109.949,109.948c17.603,0,35.112-4.263,50.634-12.329c3.841-1.996,5.336-6.727,3.341-10.568
			c-1.996-3.841-6.729-5.334-10.567-3.341c-13.489,7.009-28.093,10.564-43.407,10.564c-51.984,0-94.276-42.291-94.276-94.275
			c0-51.984,42.292-94.276,94.276-94.276c51.984,0,94.276,42.292,94.276,94.276c0,26.249-10.526,50.622-29.641,68.63
			c-3.151,2.967-3.299,7.928-0.33,11.078c2.97,3.151,7.929,3.298,11.078,0.33c13.933-13.125,24.09-29.663,29.661-47.698
			c15.352-2.759,27.042-16.205,27.042-32.34c0-16.118-11.665-29.553-26.994-32.331c-0.746-2.416-1.57-4.798-2.474-7.141h58.296
			c4.329,0,7.837-3.509,7.837-7.837c0-4.328-3.508-7.837-7.837-7.837h-65.826c-19.062-32.743-54.546-54.803-95.088-54.803
			c-40.542,0-76.026,22.06-95.088,54.803H15.673v-83.652c0-1.416,1.196-2.612,2.612-2.612h475.429c1.416,0,2.612,1.196,2.612,2.612
			V231.771z M365.898,283.73c-0.008-0.292-0.021-0.582-0.03-0.872c-0.03-0.837-0.07-1.672-0.12-2.505
			c-0.015-0.251-0.026-0.503-0.044-0.753c-0.07-1.061-0.153-2.118-0.253-3.171c-0.016-0.162-0.036-0.324-0.052-0.486
			c-0.088-0.881-0.186-1.76-0.295-2.634c-0.021-0.163-0.033-0.327-0.055-0.49c4.449,3.111,7.363,8.271,7.363,14.099
			c0,5.827-2.914,10.988-7.363,14.099c0.213-1.666,0.376-3.337,0.514-5.013c0.03-0.366,0.061-0.731,0.088-1.098
			c0.041-0.574,0.078-1.147,0.111-1.722c0.036-0.605,0.064-1.211,0.088-1.817c0.017-0.42,0.037-0.84,0.049-1.261
			c0.031-1.062,0.051-2.123,0.051-3.188S365.928,284.79,365.898,283.73z"/>
	</g>
</g>
<g>
</g>
<g>
</g>
<g>
</g>
<g>
</g>
<g>
</g>
<g>
</g>
<g>
</g>
<g>
</g>
<g>
</g>
<g>
</g>
<g>
</g>
<g>
</g>
<g>
</g>
<g>
</g>
<g>
</g>
</svg>
