<?xml version="1.0" encoding="iso-8859-1"?>
<!-- Generator: Adobe Illustrator 19.0.0, SVG Export Plug-In . SVG Version: 6.00 Build 0)  -->
<svg version="1.1" id="Layer_1" xmlns="http://www.w3.org/2000/svg" xmlns:xlink="http://www.w3.org/1999/xlink" x="0px" y="0px"
	 viewBox="0 0 512 512" style="enable-background:new 0 0 512 512;" xml:space="preserve">
<g>
	<g>
		<path d="M374.086,135.674c-11.812-11.817-27.519-18.326-44.225-18.326c-16.706,0-32.412,6.509-44.225,18.326
			c-3.259,3.261-3.258,8.546,0.003,11.805c3.259,3.259,8.545,3.258,11.805-0.002c8.658-8.663,20.172-13.433,32.416-13.433
			c12.246,0,23.758,4.772,32.416,13.433c17.877,17.883,17.877,46.984,0,64.869c-3.26,3.261-3.259,8.547,0.002,11.806
			c1.63,1.63,3.765,2.443,5.901,2.443c2.137,0,4.274-0.816,5.905-2.446C398.466,199.755,398.466,160.066,374.086,135.674z"/>
	</g>
</g>
<g>
	<g>
		<path d="M404.854,106.595c-20.417-20.424-47.562-31.673-76.436-31.673c-28.872,0-56.018,11.247-76.435,31.673
			c-3.259,3.261-3.258,8.546,0.002,11.805c3.261,3.259,8.546,3.259,11.806-0.002c17.262-17.27,40.214-26.78,64.627-26.78
			c24.414,0,47.366,9.51,64.627,26.78c35.639,35.653,35.639,93.664,0,129.317c-3.259,3.261-3.258,8.546,0.003,11.805
			c1.63,1.631,3.765,2.445,5.901,2.445c2.137,0,4.274-0.816,5.905-2.446C446.996,217.359,446.996,148.757,404.854,106.595z"/>
	</g>
</g>
<g>
	<g>
		<path d="M436.176,75.793c-28.761-28.772-66.999-44.618-107.673-44.618s-78.912,15.845-107.673,44.618
			c-3.259,3.261-3.258,8.546,0.003,11.805c3.258,3.26,8.544,3.26,11.804-0.001c25.607-25.618,59.653-39.726,95.864-39.726
			c36.212,0,70.258,14.109,95.864,39.726c52.862,52.884,52.862,138.935,0,191.819c-3.259,3.261-3.258,8.546,0.003,11.805
			c1.63,1.629,3.765,2.444,5.901,2.444c2.137,0,4.274-0.816,5.905-2.446C495.544,231.825,495.544,135.186,436.176,75.793z"/>
	</g>
</g>
<g>
	<g>
		<path d="M501.828,390.617l-73.419-73.418c-13.551-13.551-35.603-13.55-49.154,0l-34.795,34.795
			c-4.605,4.605-10.726,7.141-17.239,7.141s-12.635-2.537-17.239-7.141L160.014,202.026c-9.505-9.507-9.506-24.973,0-34.48
			l15.083-15.084c0.012-0.012,0.027-0.022,0.039-0.034c0.012-0.012,0.023-0.027,0.034-0.039l19.636-19.638
			c6.565-6.565,10.181-15.293,10.181-24.577s-3.616-18.012-10.18-24.577L121.391,10.18C114.827,3.616,106.098,0,96.814,0
			C87.53,0,78.802,3.616,72.237,10.18L33.972,48.445C12.07,70.348,0.008,99.466,0.008,130.44c0,30.974,12.062,60.092,33.963,81.995
			l131.93,131.932c3.26,3.259,8.545,3.26,11.806,0c3.26-3.26,3.26-8.546,0-11.805L45.779,200.629
			c-18.749-18.748-29.074-43.675-29.074-70.189S27.03,79,45.779,60.251l12.688-12.688l98.96,98.96l-9.217,9.217
			c-16.016,16.016-16.015,42.075,0.001,58.09l149.965,149.968c7.759,7.759,18.074,12.031,29.046,12.032c0.001,0,0,0,0.001,0
			c10.97,0,21.287-4.273,29.045-12.031l9.217-9.217l98.96,98.961l-12.688,12.688c-18.748,18.748-43.675,29.074-70.189,29.074
			s-51.441-10.325-70.189-29.074l-90.618-90.618c-3.261-3.26-8.546-3.26-11.806,0c-3.26,3.26-3.26,8.546,0,11.805l90.617,90.617
			C321.476,499.938,350.594,512,381.568,512c30.973,0,60.092-12.062,81.995-33.964l18.575-18.574
			c0.006-0.006,0.011-0.01,0.017-0.016c0.006-0.006,0.01-0.011,0.016-0.017l19.659-19.659
			C515.38,426.219,515.38,404.168,501.828,390.617z M70.271,35.758l13.772-13.772c3.411-3.411,7.947-5.29,12.771-5.29
			c4.824,0,9.36,1.879,12.771,5.29l73.419,73.418c3.41,3.411,5.29,7.947,5.29,12.772c0,4.824-1.879,9.36-5.291,12.771
			l-13.772,13.772L70.271,35.758z M490.022,427.965l-13.772,13.772l-98.96-98.961l13.771-13.772c7.042-7.041,18.501-7.043,25.543,0
			l73.418,73.418C497.064,409.464,497.064,420.923,490.022,427.965z"/>
	</g>
</g>
<g>
</g>
<g>
</g>
<g>
</g>
<g>
</g>
<g>
</g>
<g>
</g>
<g>
</g>
<g>
</g>
<g>
</g>
<g>
</g>
<g>
</g>
<g>
</g>
<g>
</g>
<g>
</g>
<g>
</g>
</svg>
