<?xml version="1.0" encoding="iso-8859-1"?>
<!-- Generator: Adobe Illustrator 19.0.0, SVG Export Plug-In . SVG Version: 6.00 Build 0)  -->
<svg version="1.1" id="Layer_1" xmlns="http://www.w3.org/2000/svg" xmlns:xlink="http://www.w3.org/1999/xlink" x="0px" y="0px"
	 viewBox="0 0 512 512" style="enable-background:new 0 0 512 512;" xml:space="preserve">
<g>
	<g>
		<path d="M506.595,46.046L465.903,5.344C462.459,1.898,457.867,0,452.974,0c-4.894,0-9.486,1.898-12.931,5.344L406.817,38.58
			c-2.445-2.366-5.655-3.674-9.076-3.674c-3.492,0-6.773,1.356-9.235,3.82l-8.792,8.794l-1.6-1.599
			c-3.445-3.446-8.036-5.345-12.929-5.345c-4.894,0-9.484,1.898-12.931,5.344l-47.721,47.733c-7.128,7.129-7.128,18.731,0,25.86
			l1.602,1.602l-2.479,2.48l-1.598-1.599c-3.445-3.446-8.036-5.345-12.931-5.345c-4.892,0-9.484,1.898-12.929,5.344l-47.72,47.733
			c-7.128,7.13-7.128,18.731-0.002,25.859l1.602,1.603l-24.608,24.615c-0.004,0.004-0.008,0.007-0.013,0.011L77.11,350.198
			c-2.608,2.609-5.745,7.107-7.293,10.46l-29.045,62.854c-0.475,1.029-0.818,2.115-1.034,3.227L23.061,443.42
			c-4.388,4.388-4.983,11.141-1.812,16.184L3.877,476.979c-5.092,5.093-5.092,13.379-0.002,18.471l12.727,12.73
			c2.461,2.463,5.743,3.82,9.235,3.82c3.494,0,6.773-1.356,9.237-3.819l17.371-17.375c2.062,1.299,4.445,2.004,6.944,2.004
			c3.494,0,6.773-1.356,9.237-3.82l16.684-16.688c1.111-0.216,2.194-0.551,3.22-1.025l62.837-29.05
			c3.351-1.55,7.847-4.685,10.459-7.297l118.594-118.624l98.627-98.65c3.06-3.06,3.06-8.023-0.002-11.083
			c-3.064-3.061-8.025-3.059-11.082,0.001l-88.882,88.903c-0.002,0-0.002,0.001-0.002,0.001l-9.743,9.746
			c-1.22,1.218-4.111,3.055-5.73,3.641l-94.696,34.247l34.239-94.724c0.586-1.621,2.424-4.513,3.64-5.731l190.952-191l62.551,62.564
			l-68.304,68.32c-3.062,3.061-3.062,8.023,0,11.082c3.062,3.06,8.025,3.059,11.083-0.001l31.992-32l6.49,6.492
			c0.086,0.086,0.086,0.438,0.002,0.522L302.547,307.681c-8.094,8.097-8.094,21.271,0.002,29.37c3.923,3.921,9.132,6.08,14.676,6.08
			c0.002,0,0.004,0,0.006,0c5.541-0.001,10.753-2.16,14.682-6.081l18.037-18.04c3.059-3.06,3.059-8.023-0.002-11.083
			c-3.062-3.06-8.025-3.059-11.081,0.001l-18.031,18.035c-0.965,0.963-2.247,1.495-3.608,1.495c-0.002,0-0.002,0-0.002,0
			c-1.357,0-2.633-0.53-3.592-1.489c-1.987-1.987-1.987-5.22-0.002-7.207l139.01-139.044c6.251-6.253,6.251-16.429,0-22.685
			l-6.494-6.495l7.198-7.2l6.492,6.492c10.224,10.226,10.224,26.866,0.002,37.093L359.756,287.03
			c-3.059,3.061-3.059,8.023,0.002,11.083c3.062,3.059,8.023,3.058,11.081-0.001l100.083-100.107
			c16.333-16.337,16.331-42.918-0.002-59.256l-6.494-6.495l8.796-8.798c5.041-5.042,5.083-13.209,0.145-18.313l4.516-4.517
			c3.059-3.06,3.059-8.023-0.002-11.082c-3.062-3.062-8.025-3.059-11.081,0.001l-4.508,4.508l-7.314-7.315l13.949-13.953
			c3.062-3.062,3.06-8.023,0-11.083c-3.064-3.06-8.025-3.059-11.083,0.001l-13.945,13.949l-7.596-7.597l13.949-13.954
			c3.059-3.06,3.059-8.023-0.002-11.082c-3.062-3.06-8.025-3.058-11.081,0.002l-13.947,13.95l-7.314-7.316l33.223-33.231
			c0.655-0.654,1.439-0.752,1.847-0.752c0.409,0,1.192,0.097,1.845,0.752l40.691,40.702c1.002,1.002,1.002,2.695,0,3.697
			l-6.818,6.82c-3.062,3.062-3.059,8.023,0,11.083c3.062,3.059,8.025,3.058,11.083-0.002l6.818-6.82
			C513.724,64.777,513.724,53.176,506.595,46.046z M25.836,495.25l-9.031-9.034l15.286-15.29l9.033,9.034L25.836,495.25z
			 M59.39,476.06l-23.401-23.404l9.961-9.964l23.399,23.406L59.39,476.06z M150.264,348.586c-1.518,4.203-0.763,8.372,2.019,11.153
			c1.835,1.835,4.274,2.788,6.927,2.788c1.37,0,2.798-0.254,4.229-0.771l77.341-27.969l-72.526,72.545l-7.498-7.499
			c-3.062-3.06-8.023-3.063-11.083-0.001c-3.062,3.059-3.062,8.022,0,11.082l7.5,7.502l-6.428,6.429
			c-1.315,1.315-4.263,3.372-5.953,4.153l-62.484,28.887l-27.146-27.152l28.884-62.504c0.779-1.691,2.835-4.637,4.149-5.951
			l6.426-6.428l30.454,30.459c1.531,1.531,3.535,2.296,5.541,2.296c2.006,0,4.012-0.765,5.541-2.295
			c3.062-3.06,3.062-8.022,0.002-11.082l-30.455-30.461l72.526-72.545L150.264,348.586z M241.162,186.106l-1.598-1.6
			c-1.002-1.001-1.002-2.695,0-3.697l47.72-47.733c0.655-0.655,1.437-0.752,1.845-0.752c0.411,0,1.192,0.098,1.847,0.752l1.6,1.601
			L241.162,186.106z M317.219,110.032l-1.6-1.599c-1-1.002-1-2.695,0-3.697l47.721-47.733c0.655-0.654,1.437-0.752,1.847-0.752
			c0.409,0,1.19,0.098,1.845,0.752l1.602,1.602L317.219,110.032z"/>
	</g>
</g>
<g>
	<g>
		<path d="M427.907,109.917l-25.859-25.866c-3.06-3.06-8.023-3.062-11.083-0.001c-3.059,3.061-3.062,8.022,0,11.083l25.859,25.866
			c1.529,1.531,3.535,2.296,5.54,2.296c2.006,0,4.01-0.765,5.541-2.295C430.967,117.94,430.967,112.979,427.907,109.917z"/>
	</g>
</g>
<g>
	<g>
		<path d="M406.357,131.472l-25.861-25.867c-3.06-3.06-8.022-3.061-11.082-0.001c-3.062,3.06-3.062,8.023-0.002,11.083
			l25.861,25.867c1.531,1.531,3.537,2.296,5.543,2.296c2.004,0,4.01-0.765,5.541-2.295
			C409.419,139.495,409.419,134.533,406.357,131.472z"/>
	</g>
</g>
<g>
</g>
<g>
</g>
<g>
</g>
<g>
</g>
<g>
</g>
<g>
</g>
<g>
</g>
<g>
</g>
<g>
</g>
<g>
</g>
<g>
</g>
<g>
</g>
<g>
</g>
<g>
</g>
<g>
</g>
</svg>
